<?xml version="1.0" standalone="no"?><!DOCTYPE svg PUBLIC "-//W3C//DTD SVG 1.1//EN" "http://www.w3.org/Graphics/SVG/1.1/DTD/svg11.dtd"><svg t="1516610432242" class="icon" style="" viewBox="0 0 1024 1024" version="1.1" xmlns="http://www.w3.org/2000/svg" p-id="36739" xmlns:xlink="http://www.w3.org/1999/xlink" width="64" height="64"><defs><style type="text/css"></style></defs><path d="M160 12.8h665.6c19.2 0 38.4 19.2 38.4 38.4v921.6c0 19.2-19.2 38.4-38.4 38.4H160c-19.2 0-38.4-19.2-38.4-38.4V51.2c0-25.6 19.2-38.4 38.4-38.4zM377.6 448c-6.4 12.8-19.2 12.8-32 6.4-6.4-6.4-6.4-25.6 0-32 19.2-25.6 38.4-44.8 64-57.6 25.6-12.8 51.2-19.2 83.2-19.2s57.6 6.4 83.2 19.2c25.6 12.8 51.2 32 64 57.6 12.8 6.4 12.8 25.6 0 32-12.8 6.4-25.6 6.4-32-6.4-12.8-19.2-32-32-51.2-44.8-19.2-12.8-38.4-12.8-64-12.8s-44.8 6.4-64 12.8c-19.2 12.8-32 25.6-51.2 44.8z m115.2 0c25.6 0 44.8 6.4 57.6 25.6 12.8 12.8 25.6 38.4 25.6 57.6 0 25.6-6.4 44.8-25.6 57.6-12.8 19.2-32 25.6-57.6 25.6-19.2 0-44.8-6.4-57.6-19.2-19.2-19.2-25.6-38.4-25.6-64s6.4-44.8 25.6-57.6c12.8-19.2 38.4-25.6 57.6-25.6z m32 57.6c-6.4-6.4-19.2-12.8-32-12.8s-19.2 6.4-25.6 12.8c-6.4 6.4-12.8 12.8-12.8 25.6s6.4 19.2 12.8 25.6c6.4 6.4 19.2 12.8 25.6 12.8 12.8 0 19.2-6.4 25.6-12.8 6.4-6.4 12.8-19.2 12.8-25.6 0-12.8 0-19.2-6.4-25.6z m-217.6-128c-6.4 6.4-25.6 12.8-32 0-12.8-6.4-12.8-19.2 0-32 25.6-32 64-57.6 102.4-76.8 76.8-38.4 166.4-38.4 243.2 0 38.4 19.2 70.4 44.8 102.4 76.8 6.4 6.4 6.4 25.6 0 32-19.2 12.8-32 6.4-38.4 0-25.6-25.6-51.2-51.2-83.2-64-32-12.8-64-25.6-102.4-25.6-38.4 0-70.4 6.4-102.4 25.6-38.4 12.8-64 38.4-89.6 64z m-51.2-256c1587.2 0-544 0 0 0z m108.8 748.8c-12.8 0-25.6-12.8-25.6-25.6s12.8-25.6 25.6-25.6h256c12.8 0 25.6 12.8 25.6 25.6s-12.8 25.6-25.6 25.6h-256z m422.4-780.8H198.4v844.8h588.8V89.6z" fill="#707070" p-id="36740"></path></svg>