<?xml version="1.0" encoding="iso-8859-1"?>
<!-- Generator: Adobe Illustrator 19.0.0, SVG Export Plug-In . SVG Version: 6.00 Build 0)  -->
<svg version="1.1" id="Layer_1" xmlns="http://www.w3.org/2000/svg" xmlns:xlink="http://www.w3.org/1999/xlink" x="0px" y="0px"
	 viewBox="0 0 511.998 511.998" style="enable-background:new 0 0 511.998 511.998;" xml:space="preserve">
<g>
	<path style="fill:#9BF57D;" d="M405.976,166.184c-3.258-0.555-6.474-0.644-9.639-0.467c-1.216,2.928-2.196,5.992-2.752,9.25
		c-3.985,23.389,11.745,45.581,35.135,49.566c3.258,0.555,6.474,0.644,9.639,0.467c1.216-2.928,2.196-5.992,2.752-9.25
		C445.096,192.359,429.366,170.169,405.976,166.184z"/>
	<path style="fill:#9BF57D;" d="M499.501,182.118c3.258,0.555,6.322,1.536,9.25,2.752c0.178,3.166,0.088,6.381-0.467,9.639
		c-3.985,23.389-26.176,39.12-49.566,35.135c-3.258-0.555-6.322-1.536-9.25-2.752c-0.178-3.166-0.088-6.381,0.467-9.639
		C453.919,193.863,476.111,178.133,499.501,182.118z"/>
	<path style="fill:#9BF57D;" d="M433.953,95.384c-2.479-0.827-4.981-1.283-7.476-1.526c-1.302,2.141-2.438,4.417-3.265,6.896
		c-5.932,17.794,3.684,37.027,21.478,42.958c2.479,0.827,4.981,1.283,7.476,1.526c1.302-2.141,2.438-4.417,3.265-6.896
		C461.364,120.549,451.747,101.316,433.953,95.384z"/>
	<path style="fill:#9BF57D;" d="M505.102,119.101c2.479,0.827,4.755,1.962,6.896,3.265c-0.243,2.495-0.699,4.996-1.526,7.476
		c-5.932,17.794-25.164,27.41-42.958,21.478c-2.479-0.827-4.755-1.962-6.896-3.265c0.243-2.495,0.699-4.996,1.526-7.476
		C468.076,122.786,487.308,113.171,505.102,119.101z"/>
</g>
<path style="fill:#0096DC;" d="M396.392,258.169l0.062,38.105l38.306-12.963c4.92-1.665,5.052-8.575,0.199-10.427L396.392,258.169z"
	/>
<path style="fill:#00C3FF;" d="M283.023,260.473c-23.844-61.418-74.093-137.198-169.947-168.553
	c-5.247-1.716-10.733,1.759-11.692,7.195c-3.26,18.481-6.253,59.555,19.791,99.452l139.474,90.993L283.023,260.473z"/>
<path style="fill:#96E6FF;" d="M340.049,215.751c-19.154,0.569-36.128,9.747-47.223,23.792
	c-9.504,12.03-20.355,22.916-33.075,31.046c-49.819,31.838-162.75,45.742-162.75,45.742c-26.048,3.453-54.285,5.819-84.328,6.553
	c-9.327,0.228-15.347,9.996-11.488,18.49l30.47,67.032c3.192,7.024,11.725,9.791,18.414,5.95
	c12.231-7.026,32.602-18.527,57.087-31.575c24.324,34.277,64.259,56.698,109.488,56.698c58.258,0,107.726-37.158,126.289-89.031
	c2.057-5.748,7.147-9.721,13.097-11.087c28.525-6.548,49.625-32.518,48.525-63.28C403.345,242.237,373.896,214.744,340.049,215.751z
	"/>
<path style="fill:#00D2FF;" d="M297.195,323.124c0,0-86.559-155.806-259.677-143.946c-4.858,0.332-8.194,5.039-7.081,9.779
	c4.725,20.108,20.887,68.431,69.854,89.416l-18.651,12.434c-4.345,2.896-4.719,9.091-0.808,12.553
	C104.834,324.596,185.537,382.675,297.195,323.124z"/>
<path style="fill:#0096DC;" d="M359.846,278.374c-4.947,0-8.95-4.007-8.95-8.95v-8.95c0-4.943,4.003-8.95,8.95-8.95
	c4.947,0,8.95,4.007,8.95,8.95v8.95C368.796,274.366,364.793,278.374,359.846,278.374z"/>
<path style="fill:#7DC86E;" d="M440.397,314.174c-4.947,0-8.95-4.007-8.95-8.95c0-112.384,19.815-185.519,36.438-227.08
	c1.836-4.589,7.071-6.809,11.633-4.986c4.589,1.84,6.827,7.045,4.991,11.637c-16.039,40.097-35.163,110.893-35.163,220.428
	C449.347,310.167,445.344,314.174,440.397,314.174z"/>
<path style="fill:#00D2FF;" d="M13.047,367.47l18.607,40.935c3.192,7.024,11.724,9.791,18.414,5.948
	c12.231-7.025,32.602-18.527,57.087-31.575l-10.313-15.157c-6.05-8.893-16.824-13.317-27.379-11.243L13.047,367.47z"/>
<path style="fill:#00C3FF;" d="M219.524,294.776c-32.788,1.918-90.925-2.55-119.233-16.402l-18.651,12.434
	c-4.296,2.864-4.789,9.022-0.926,12.447c11.369,10.079,35.692,28.595,70.124,38.778c33.677-9.059,58.442-25.305,72.769-36.747
	C228.116,301.685,225.284,294.439,219.524,294.776z"/>
<g>
</g>
<g>
</g>
<g>
</g>
<g>
</g>
<g>
</g>
<g>
</g>
<g>
</g>
<g>
</g>
<g>
</g>
<g>
</g>
<g>
</g>
<g>
</g>
<g>
</g>
<g>
</g>
<g>
</g>
</svg>
